<svg xmlns="http://www.w3.org/2000/svg" width="900" height="34" viewBox="0 0 900 34" role="img" aria-label="divider">
  <defs>
    <style>
    @keyframes drift {
      from { transform: translateX(0); }
      to   { transform: translateX(-923px); }
    }
    .stream { font-family:'Courier New',monospace; font-size:16px;
               animation:drift 14s linear infinite; }
    </style>
    <linearGradient id="fade" x1="0" y1="0" x2="1" y2="0">
      <stop offset="0%"   stop-color="#080c09" stop-opacity="1"/>
      <stop offset="12%"  stop-color="#080c09" stop-opacity="0"/>
      <stop offset="88%"  stop-color="#080c09" stop-opacity="0"/>
      <stop offset="100%" stop-color="#080c09" stop-opacity="1"/>
    </linearGradient>
    <clipPath id="clip"><rect width="900" height="34"/></clipPath>
  </defs>
  <g clip-path="url(#clip)">
    <text class="stream"><tspan x="4" y="22" fill="#1f7a36" opacity="0.57">ﾆ</tspan><tspan x="17" y="22" fill="#1f7a36" opacity="0.47">@</tspan><tspan x="30" y="22" fill="#4dffa6" opacity="0.9">ｺ</tspan><tspan x="43" y="22" fill="#ecffec" opacity="1">ﾌ</tspan><tspan x="56" y="22" fill="#1f7a36" opacity="0.43">2</tspan><tspan x="69" y="22" fill="#1f7a36" opacity="0.53">ｴ</tspan><tspan x="82" y="22" fill="#1f7a36" opacity="0.48">ｵ</tspan><tspan x="95" y="22" fill="#1f7a36" opacity="0.42">D</tspan><tspan x="108" y="22" fill="#1f7a36" opacity="0.62">ﾙ</tspan><tspan x="121" y="22" fill="#4dffa6" opacity="0.9">ｷ</tspan><tspan x="134" y="22" fill="#1f7a36" opacity="0.58">ﾊ</tspan><tspan x="147" y="22" fill="#1f7a36" opacity="0.4">ﾜ</tspan><tspan x="160" y="22" fill="#1f7a36" opacity="0.53">ｴ</tspan><tspan x="173" y="22" fill="#1f7a36" opacity="0.51">%</tspan><tspan x="186" y="22" fill="#ecffec" opacity="1">ﾗ</tspan><tspan x="199" y="22" fill="#1f7a36" opacity="0.65">ｾ</tspan><tspan x="212" y="22" fill="#4dffa6" opacity="0.9">ｳ</tspan><tspan x="225" y="22" fill="#1f7a36" opacity="0.59">ｶ</tspan><tspan x="238" y="22" fill="#1f7a36" opacity="0.42">ﾎ</tspan><tspan x="251" y="22" fill="#1f7a36" opacity="0.69">ﾍ</tspan><tspan x="264" y="22" fill="#1f7a36" opacity="0.35">ｵ</tspan><tspan x="277" y="22" fill="#1f7a36" opacity="0.47">ﾀ</tspan><tspan x="290" y="22" fill="#1f7a36" opacity="0.6">ｶ</tspan><tspan x="303" y="22" fill="#4dffa6" opacity="0.9">ﾚ</tspan><tspan x="316" y="22" fill="#1f7a36" opacity="0.36">ﾎ</tspan><tspan x="329" y="22" fill="#ecffec" opacity="1">ｴ</tspan><tspan x="342" y="22" fill="#1f7a36" opacity="0.5">D</tspan><tspan x="355" y="22" fill="#1f7a36" opacity="0.32">ﾛ</tspan><tspan x="368" y="22" fill="#1f7a36" opacity="0.57">ｸ</tspan><tspan x="381" y="22" fill="#1f7a36" opacity="0.61">@</tspan><tspan x="394" y="22" fill="#4dffa6" opacity="0.9">ｿ</tspan><tspan x="407" y="22" fill="#1f7a36" opacity="0.53">1</tspan><tspan x="420" y="22" fill="#1f7a36" opacity="0.65">1</tspan><tspan x="433" y="22" fill="#1f7a36" opacity="0.43">ﾜ</tspan><tspan x="446" y="22" fill="#1f7a36" opacity="0.58">@</tspan><tspan x="459" y="22" fill="#1f7a36" opacity="0.54">ｴ</tspan><tspan x="472" y="22" fill="#ecffec" opacity="1">ﾛ</tspan><tspan x="485" y="22" fill="#4dffa6" opacity="0.9">ﾜ</tspan><tspan x="498" y="22" fill="#1f7a36" opacity="0.53">ﾌ</tspan><tspan x="511" y="22" fill="#1f7a36" opacity="0.48">ｴ</tspan><tspan x="524" y="22" fill="#1f7a36" opacity="0.64">ｿ</tspan><tspan x="537" y="22" fill="#1f7a36" opacity="0.68">ｳ</tspan><tspan x="550" y="22" fill="#1f7a36" opacity="0.49">ﾚ</tspan><tspan x="563" y="22" fill="#1f7a36" opacity="0.57">F</tspan><tspan x="576" y="22" fill="#4dffa6" opacity="0.9">ｹ</tspan><tspan x="589" y="22" fill="#1f7a36" opacity="0.32">ﾃ</tspan><tspan x="602" y="22" fill="#1f7a36" opacity="0.58">ﾍ</tspan><tspan x="615" y="22" fill="#ecffec" opacity="1">ｺ</tspan><tspan x="628" y="22" fill="#1f7a36" opacity="0.56">ﾙ</tspan><tspan x="641" y="22" fill="#1f7a36" opacity="0.7">ｸ</tspan><tspan x="654" y="22" fill="#1f7a36" opacity="0.63">ﾛ</tspan><tspan x="667" y="22" fill="#4dffa6" opacity="0.9">ﾅ</tspan><tspan x="680" y="22" fill="#1f7a36" opacity="0.41">ﾚ</tspan><tspan x="693" y="22" fill="#1f7a36" opacity="0.45">D</tspan><tspan x="706" y="22" fill="#1f7a36" opacity="0.57">4</tspan><tspan x="719" y="22" fill="#1f7a36" opacity="0.31">ｼ</tspan><tspan x="732" y="22" fill="#1f7a36" opacity="0.48">ｷ</tspan><tspan x="745" y="22" fill="#1f7a36" opacity="0.37">ﾜ</tspan><tspan x="758" y="22" fill="#ecffec" opacity="1">ﾛ</tspan><tspan x="771" y="22" fill="#1f7a36" opacity="0.35">1</tspan><tspan x="784" y="22" fill="#1f7a36" opacity="0.32">ｽ</tspan><tspan x="797" y="22" fill="#1f7a36" opacity="0.61">ﾊ</tspan><tspan x="810" y="22" fill="#1f7a36" opacity="0.35">ｷ</tspan><tspan x="823" y="22" fill="#1f7a36" opacity="0.4">ﾚ</tspan><tspan x="836" y="22" fill="#1f7a36" opacity="0.46">6</tspan><tspan x="849" y="22" fill="#4dffa6" opacity="0.9">ｵ</tspan><tspan x="862" y="22" fill="#1f7a36" opacity="0.65">ﾛ</tspan><tspan x="875" y="22" fill="#1f7a36" opacity="0.33">ｴ</tspan><tspan x="888" y="22" fill="#1f7a36" opacity="0.48">0</tspan><tspan x="901" y="22" fill="#ecffec" opacity="1">ｾ</tspan><tspan x="914" y="22" fill="#1f7a36" opacity="0.52">ﾒ</tspan><tspan x="927" y="22" fill="#1f7a36" opacity="0.65">ﾆ</tspan><tspan x="940" y="22" fill="#1f7a36" opacity="0.63">@</tspan><tspan x="953" y="22" fill="#4dffa6" opacity="0.9">ｺ</tspan><tspan x="966" y="22" fill="#ecffec" opacity="1">ﾌ</tspan><tspan x="979" y="22" fill="#1f7a36" opacity="0.65">2</tspan><tspan x="992" y="22" fill="#1f7a36" opacity="0.41">ｴ</tspan><tspan x="1005" y="22" fill="#1f7a36" opacity="0.47">ｵ</tspan><tspan x="1018" y="22" fill="#1f7a36" opacity="0.44">D</tspan><tspan x="1031" y="22" fill="#1f7a36" opacity="0.65">ﾙ</tspan><tspan x="1044" y="22" fill="#4dffa6" opacity="0.9">ｷ</tspan><tspan x="1057" y="22" fill="#1f7a36" opacity="0.68">ﾊ</tspan><tspan x="1070" y="22" fill="#1f7a36" opacity="0.36">ﾜ</tspan><tspan x="1083" y="22" fill="#1f7a36" opacity="0.37">ｴ</tspan><tspan x="1096" y="22" fill="#1f7a36" opacity="0.39">%</tspan><tspan x="1109" y="22" fill="#ecffec" opacity="1">ﾗ</tspan><tspan x="1122" y="22" fill="#1f7a36" opacity="0.39">ｾ</tspan><tspan x="1135" y="22" fill="#4dffa6" opacity="0.9">ｳ</tspan><tspan x="1148" y="22" fill="#1f7a36" opacity="0.49">ｶ</tspan><tspan x="1161" y="22" fill="#1f7a36" opacity="0.54">ﾎ</tspan><tspan x="1174" y="22" fill="#1f7a36" opacity="0.41">ﾍ</tspan><tspan x="1187" y="22" fill="#1f7a36" opacity="0.3">ｵ</tspan><tspan x="1200" y="22" fill="#1f7a36" opacity="0.47">ﾀ</tspan><tspan x="1213" y="22" fill="#1f7a36" opacity="0.45">ｶ</tspan><tspan x="1226" y="22" fill="#4dffa6" opacity="0.9">ﾚ</tspan><tspan x="1239" y="22" fill="#1f7a36" opacity="0.53">ﾎ</tspan><tspan x="1252" y="22" fill="#ecffec" opacity="1">ｴ</tspan><tspan x="1265" y="22" fill="#1f7a36" opacity="0.68">D</tspan><tspan x="1278" y="22" fill="#1f7a36" opacity="0.58">ﾛ</tspan><tspan x="1291" y="22" fill="#1f7a36" opacity="0.51">ｸ</tspan><tspan x="1304" y="22" fill="#1f7a36" opacity="0.55">@</tspan><tspan x="1317" y="22" fill="#4dffa6" opacity="0.9">ｿ</tspan><tspan x="1330" y="22" fill="#1f7a36" opacity="0.57">1</tspan><tspan x="1343" y="22" fill="#1f7a36" opacity="0.32">1</tspan><tspan x="1356" y="22" fill="#1f7a36" opacity="0.66">ﾜ</tspan><tspan x="1369" y="22" fill="#1f7a36" opacity="0.61">@</tspan><tspan x="1382" y="22" fill="#1f7a36" opacity="0.65">ｴ</tspan><tspan x="1395" y="22" fill="#ecffec" opacity="1">ﾛ</tspan><tspan x="1408" y="22" fill="#4dffa6" opacity="0.9">ﾜ</tspan><tspan x="1421" y="22" fill="#1f7a36" opacity="0.62">ﾌ</tspan><tspan x="1434" y="22" fill="#1f7a36" opacity="0.46">ｴ</tspan><tspan x="1447" y="22" fill="#1f7a36" opacity="0.46">ｿ</tspan><tspan x="1460" y="22" fill="#1f7a36" opacity="0.34">ｳ</tspan><tspan x="1473" y="22" fill="#1f7a36" opacity="0.55">ﾚ</tspan><tspan x="1486" y="22" fill="#1f7a36" opacity="0.32">F</tspan><tspan x="1499" y="22" fill="#4dffa6" opacity="0.9">ｹ</tspan><tspan x="1512" y="22" fill="#1f7a36" opacity="0.33">ﾃ</tspan><tspan x="1525" y="22" fill="#1f7a36" opacity="0.38">ﾍ</tspan><tspan x="1538" y="22" fill="#ecffec" opacity="1">ｺ</tspan><tspan x="1551" y="22" fill="#1f7a36" opacity="0.36">ﾙ</tspan><tspan x="1564" y="22" fill="#1f7a36" opacity="0.44">ｸ</tspan><tspan x="1577" y="22" fill="#1f7a36" opacity="0.32">ﾛ</tspan><tspan x="1590" y="22" fill="#4dffa6" opacity="0.9">ﾅ</tspan><tspan x="1603" y="22" fill="#1f7a36" opacity="0.3">ﾚ</tspan><tspan x="1616" y="22" fill="#1f7a36" opacity="0.36">D</tspan><tspan x="1629" y="22" fill="#1f7a36" opacity="0.34">4</tspan><tspan x="1642" y="22" fill="#1f7a36" opacity="0.45">ｼ</tspan><tspan x="1655" y="22" fill="#1f7a36" opacity="0.31">ｷ</tspan><tspan x="1668" y="22" fill="#1f7a36" opacity="0.65">ﾜ</tspan><tspan x="1681" y="22" fill="#ecffec" opacity="1">ﾛ</tspan><tspan x="1694" y="22" fill="#1f7a36" opacity="0.55">1</tspan><tspan x="1707" y="22" fill="#1f7a36" opacity="0.36">ｽ</tspan><tspan x="1720" y="22" fill="#1f7a36" opacity="0.4">ﾊ</tspan><tspan x="1733" y="22" fill="#1f7a36" opacity="0.44">ｷ</tspan><tspan x="1746" y="22" fill="#1f7a36" opacity="0.45">ﾚ</tspan><tspan x="1759" y="22" fill="#1f7a36" opacity="0.35">6</tspan><tspan x="1772" y="22" fill="#4dffa6" opacity="0.9">ｵ</tspan><tspan x="1785" y="22" fill="#1f7a36" opacity="0.64">ﾛ</tspan><tspan x="1798" y="22" fill="#1f7a36" opacity="0.7">ｴ</tspan><tspan x="1811" y="22" fill="#1f7a36" opacity="0.49">0</tspan><tspan x="1824" y="22" fill="#ecffec" opacity="1">ｾ</tspan><tspan x="1837" y="22" fill="#1f7a36" opacity="0.49">ﾒ</tspan></text>
  </g>
  <line x1="0" y1="1.5" x2="900" y2="1.5" stroke="#39d353" stroke-opacity="0.55" stroke-width="1"/>
  <line x1="0" y1="32.5" x2="900" y2="32.5" stroke="#39d353" stroke-opacity="0.55" stroke-width="1"/>
  <rect width="900" height="34" fill="url(#fade)"/>
</svg>